Coordinates
version=1
nRows=4
nColumns=107
inDegrees=yes

Units are S.I. units (second, meters, Newtons, ...)
If the header above contains a line with 'inDegrees', this indicates whether rotational values are in degrees (yes) or radians (no).

endheader
time	sternoclavicular_r2	sternoclavicular_r3	unrotscap_r3	unrotscap_r2	acromioclavicular_r2	acromioclavicular_r3	acromioclavicular_r1	unrothum_r1	unrothum_r3	unrothum_r2	elv_angle	shoulder_elv	shoulder1_r2	shoulder_rot	elbow_flexion	pro_sup	deviation	flexion	proximal_distal_r1	proximal_distal_r3	cmc_flexion	cmc_abduction	mp_flexion	ip_flexion	mcp2_flexion	mcp2_abduction	pm2_flexion	md2_flexion	mcp3_flexion	mcp3_abduction	pm3_flexion	md3_flexion	mcp4_flexion	mcp4_abduction	pm4_flexion	md4_flexion	mcp5_flexion	mcp5_abduction	pm5_flexion	md5_flexion	bicpt_tx	bicpt_ty	bicpt_tz	bicpt2_tx	bicpt2_ty	bicpt2_tz	ptpt_tx	ptpt_ty	ptpt_tz	FCUpt_tx	FCUpt_ty	FCUpt_tz	EDCpt_tx	EDCpt_ty	EDCpt_tz	APLpt_tx	APLpt_ty	APLpt_tz	FPLpt_tx	FPLpt_ty	FPLpt_tz	FPLpt2_tx	FPLpt2_ty	FPLpt2_tz	PEC1pt2_tx	PEC1pt2_ty	PEC1pt2_tz	PEC1pt3_tx	PEC1pt3_ty	PEC1pt3_tz	PEC2pt2_tx	PEC2pt2_ty	PEC2pt2_tz	PEC2pt3_tx	PEC2pt3_ty	PEC2pt3_tz	PEC3pt2_tx	PEC3pt2_ty	PEC3pt2_tz	PEC3pt3_tx	PEC3pt3_ty	PEC3pt3_tz	DELT2pt2a_tx	DELT2pt2a_ty	DELT2pt2a_tz	DELT2pt2_tx	DELT2pt2_ty	DELT2pt2_tz	LAT1pt2_tx	LAT1pt2_ty	LAT1pt2_tz	LAT1pt3_tx	LAT1pt3_ty	LAT1pt3_tz	LAT2pt2_tx	LAT2pt2_ty	LAT2pt2_tz	LAT2pt3_tx	LAT2pt3_ty	LAT2pt3_tz	LAT3pt2_tx	LAT3pt2_ty	LAT3pt2_tz	LAT3pt3_tx	LAT3pt3_ty	LAT3pt3_tz
      0.43333333	     -0.31712261	      0.13431817	     -0.13431817	      0.31712261	     -0.06421088	      0.51892972	      0.23325534	     -0.23325534	     -0.51892972	      0.06421088	    101.33068536	     75.08159622	     -1.76855409	    -34.22856658	     29.50998336	     78.88900348	      0.32579422	     -0.70756013	      0.35527103	     -0.35378006	     29.27919263	    -22.84768596	     -5.63904025	    -13.77238281	     90.73996791	     11.81921553	     75.09717792	     68.12681146	     88.73814978	      1.68204697	     81.01064268	     53.59321982	     84.65238301	    -12.84513796	     88.37149569	     43.09889683	     86.79580594	    -13.98404122	     87.79939206	      5.56931058	      0.00087610	     -0.03098230	     -0.00484480	      0.01491712	     -0.01821653	     -0.00225833	      0.00172099	     -0.06866913	     -0.00640493	      0.01192892	     -0.18247136	     -0.00009302	     -0.00946666	      0.00319559	     -0.00054259	      0.00030467	      0.00012187	      0.00060934	      0.00038998	      0.00116993	      0.00065809	     -0.00000752	     -0.00025572	     -0.00030686	      0.00246101	      0.00863439	      0.00600653	     -0.00805042	      0.01943781	     -0.01843672	      0.00246101	      0.00863439	      0.00600653	      0.00054226	      0.01801960	     -0.00946863	      0.00390664	      0.00480148	      0.01586579	      0.00000000	      0.00753756	      0.00000000	     -0.00704933	     -0.03257710	     -0.00621368	      0.02063296	     -0.00090384	     -0.00966191	     -0.00087595	      0.01468264	     -0.00600653	      0.00241930	      0.02118971	     -0.01751905	     -0.00588140	      0.01272217	     -0.00538085	     -0.01226334	      0.02686255	     -0.03007438	     -0.02302504	      0.01422380	     -0.00721618	     -0.01526660	      0.03103375	     -0.03758254
      0.46666667	     -0.32118763	      0.13603992	     -0.13603992	      0.32118763	     -0.06503396	      0.52558161	      0.23624532	     -0.23624532	     -0.52558161	      0.06503396	    100.54639966	     76.04402752	     -1.75486573	    -29.60845730	     28.53515262	     73.97080286	      0.33142586	     -0.75232257	      0.35988433	     -0.37616128	     29.98516307	    -22.74663958	     -7.68128279	    -12.92337564	     91.41674675	     11.65175258	     74.99154081	     66.64054288	     89.43858332	      1.34280940	     80.77343226	     53.41214304	     85.65399867	    -12.98764721	     88.02133379	     42.69910675	     88.40087520	    -13.99708995	     87.04640109	      5.55749857	      0.00084385	     -0.03087056	     -0.00482680	      0.01531791	     -0.01795171	     -0.00303463	      0.00208439	     -0.06843415	     -0.00600875	      0.01137845	     -0.18262456	     -0.00019307	     -0.00887648	      0.00294021	     -0.00041016	      0.00029576	      0.00011830	      0.00059151	      0.00037857	      0.00113571	      0.00063883	     -0.00000852	     -0.00025012	     -0.00030015	      0.00249256	      0.00874507	      0.00608353	     -0.00815362	      0.01968697	     -0.01867305	      0.00249256	      0.00874507	      0.00608353	      0.00054921	      0.01825058	     -0.00959000	      0.00394328	      0.00486302	      0.01595625	      0.00000000	      0.00773339	      0.00000000	     -0.00713970	     -0.03299469	     -0.00637627	      0.01870349	     -0.00074375	     -0.00730904	     -0.00088718	      0.01487084	     -0.00608353	      0.00245031	      0.02146133	     -0.01774362	     -0.00595679	      0.01288525	     -0.00544983	     -0.01242053	      0.02720689	     -0.03045988	     -0.02332019	      0.01440613	     -0.00730868	     -0.01546230	      0.03143156	     -0.03806429
      0.50000000	     -0.31747167	      0.13446602	     -0.13446602	      0.31747167	     -0.06428156	      0.51950092	      0.23351209	     -0.23351209	     -0.51950092	      0.06428156	    101.21937204	     75.16423962	     -1.76661131	    -33.73924250	     29.49904724	     78.46220223	      0.32876647	     -0.70123574	      0.35771251	     -0.35061787	     29.41692950	    -22.86079727	     -5.91630746	    -13.07208984	     90.49146409	     11.82916383	     75.64610779	     66.23878255	     88.66652730	      1.53017368	     80.99864619	     53.29995203	     84.60479450	    -12.85901561	     88.21805771	     43.42941391	     86.99194165	    -13.98502876	     87.63405452	      5.58157228	      0.00087574	     -0.03098104	     -0.00484460	      0.01495409	     -0.01821356	     -0.00232704	      0.00175253	     -0.06864874	     -0.00637055	      0.01188086	     -0.18248493	     -0.00010242	     -0.00941544	      0.00317313	     -0.00053058	      0.00030567	      0.00012227	      0.00061135	      0.00039126	      0.00117378	      0.00066025	     -0.00000772	     -0.00025467	     -0.00030561	      0.00246372	      0.00864389	      0.00601314	     -0.00805928	      0.01945920	     -0.01845701	      0.00246372	      0.00864389	      0.00601314	      0.00054285	      0.01803943	     -0.00947905	      0.00390980	      0.00480676	      0.01587364	      0.00000000	      0.00755428	      0.00000000	     -0.00705709	     -0.03261296	     -0.00622756	      0.02044213	     -0.00088663	     -0.00940135	     -0.00087692	      0.01469880	     -0.00601314	      0.00242196	      0.02121304	     -0.01753834	     -0.00588787	      0.01273617	     -0.00538678	     -0.01227684	      0.02689212	     -0.03010748	     -0.02305039	      0.01423946	     -0.00722412	     -0.01528341	      0.03106791	     -0.03762391
      0.53333333	     -0.31873557	      0.13500134	     -0.13500134	      0.31873557	     -0.06453747	      0.52156912	      0.23444173	     -0.23444173	     -0.52156912	      0.06453747	    100.93178954	     75.46347918	     -1.76159205	    -32.21680370	     29.27632258	     77.13739630	      0.33798995	     -0.69486172	      0.36519602	     -0.34743086	     29.69737971	    -22.84165347	     -6.35930949	    -13.36014878	     90.81987230	     11.80360611	     75.30476711	     66.73011008	     88.91249211	      1.58153099	     80.88021887	     53.26273149	     84.95237083	    -12.89763903	     87.89746806	     43.14481154	     87.48273023	    -13.98762619	     87.08395899	      5.60375706	      0.00086837	     -0.03095551	     -0.00484049	      0.01506627	     -0.01815306	     -0.00253874	      0.00185042	     -0.06858544	     -0.00626383	      0.01173201	     -0.18252672	     -0.00013076	     -0.00925647	      0.00310377	     -0.00049390	      0.00030659	      0.00012264	      0.00061319	      0.00039244	      0.00117732	      0.00066224	     -0.00000813	     -0.00025247	     -0.00030297	      0.00247353	      0.00867831	      0.00603708	     -0.00809137	      0.01953667	     -0.01853049	      0.00247353	      0.00867831	      0.00603708	      0.00054501	      0.01811125	     -0.00951679	      0.00392122	      0.00482590	      0.01590195	      0.00000000	      0.00761495	      0.00000000	     -0.00708519	     -0.03274279	     -0.00627794	      0.01982848	     -0.00083343	     -0.00860691	     -0.00088041	      0.01475732	     -0.00603708	      0.00243160	      0.02129749	     -0.01760816	     -0.00591131	      0.01278688	     -0.00540822	     -0.01232571	      0.02699918	     -0.03022734	     -0.02314215	      0.01429615	     -0.00725288	     -0.01534425	      0.03119160	     -0.03777370
